<svg version="1" xmlns="http://www.w3.org/2000/svg" width="1381.333" height="1381.333" viewBox="0 0 1036.000000 1036.000000"><path d="M188.4 15.5c-16.5 16.4-27.4 29.4-38.7 46.8-22.5 34.2-36.6 68.6-44.8 109.2-1.7 8.2-3.1 15-3.2 15.1-.1 0-16.8 1.8-37.2 3.8-49 5-45.2 4.4-45.9 7.1-.3 1.3-.1 13.5.4 27.2 6.8 166.6 57.1 336.5 141.2 476.8C234.9 826 339.9 930.7 466 1006.2c21.3 12.8 50.2 28.8 52 28.8 2 0 29.7-14.6 45.5-24 33.3-19.7 80-52.6 111.4-78.5 83.8-68.9 154.9-150.6 208.8-239.5 79.6-131.5 124.5-281.1 132.2-441 1.8-37.3 2.1-57 .9-57-.6 0-57.2-5.8-125.7-13-68.5-7.1-140.3-14.6-159.6-16.5-19.2-2-35.9-3.8-37-4-1.1-.3-4.7-3.9-8-8.2-8.2-10.5-30.5-32.7-45-44.8-25.2-21-49-36.7-76.5-50.4-39-19.4-75.5-29.4-115.8-31.7l-12.3-.7 8.2 10.9c18 23.8 39 58.1 48.1 78.6 5.2 11.7 10.9 28.1 10 28.9-.4.3-32 3.9-70.2 7.8-38.2 4-99.4 10.4-135.9 14.2-36.5 3.8-66.8 6.6-67.2 6.2-1.2-1.3-7.5-23.7-10.8-38.9-6.3-28.7-11-64-13.1-98.4-.6-10.2-1.5-22.1-1.8-26.5l-.7-8-15.1 15zm318 50c37 11.2 74.9 31.6 108.6 58.3 12 9.6 35.9 33.5 47.1 47.2 8.2 10 18.6 23.8 20.4 27 .9 1.6.2 1.1-14-11.7-19.3-17.3-45.4-36.9-65.2-48.9-26-15.8-47.8-24.6-72.1-29-1.6-.3-4-3.2-7.9-9.2-7.4-11.6-15.7-22-27-33.9-4-4.2-4.3-4.2 10.1.2zM181 105c2.3 28.2 8.2 60.4 15.4 83.7 3.2 10.6 13.3 37 14.6 38.6.4.5 23.6-1.4 51.5-4.3 27.9-2.8 51-4.9 51.2-4.6.6.5 4.2-.5-46.7 13.6-23.9 6.6-44.3 12.3-45.3 12.8-1.7.7-1.5 1.3 2 6.4 13.3 19.8 30.7 34.4 50.4 42.1 22.1 8.8 45.1 9.7 72.3 3l11.1-2.8-15.5-.6c-8.5-.4-18.6-1.2-22.5-1.8-3.8-.7-8.6-1.4-10.5-1.6-4.6-.5-16.8-4.3-17.5-5.5-.3-.4 4.1-4.7 9.7-9.5 70.9-59.4 170.1-80.9 260.3-56.4 38.2 10.4 82.5 28.8 108.4 44.9 38.6 24 75.7 61.7 93.9 95.5 17.1 31.8 23.6 49.8 31.7 88.5 3.4 16.2 9.1 51.3 10.7 66 1.9 17.4 1.6 66.1-.5 84-6.9 57.2-21 104.6-46.2 155-28.2 56.6-71.8 112.2-98.1 125.4-4.7 2.4-6.3 2.6-17.5 2.6-45.2 0-98-7.4-136.9-19.1-27.6-8.2-58.2-22.1-79-35.7-26.3-17.1-65.8-53.1-85.4-77.7-10.1-12.7-43.6-62.6-55.3-82.5-17.5-29.7-29.1-52.5-40.8-80.6-6.4-15.2-16.8-45.2-18-51.7-.6-2.9-2.1-4.6-9.3-10-16.5-12.3-38.6-37.3-49.3-55.5-2.2-3.7-3.9-6.4-3.9-6.1 0 2.3 8.9 47.9 12.5 64.6 18.5 84.4 41.2 151.9 75 223.7 6.4 13.6 11.5 24.9 11.3 25.2-.7.7-25-32.7-38.3-52.6-21.3-32-37.4-59.8-55.8-96.7C119.3 522.6 90.5 413.6 83 294c-1.1-18.6-1.8-55.5-1-56.4.5-.4 48-5.6 51.8-5.6.6 0 1.2-1 1.2-2.3 0-4.6 8.2-43 13.6-63.2 5.5-20.9 19.5-64.3 25.3-78.4C175.6 84 177 80 177 79c0-.9.3-2 .8-2.4.7-.8 1 1.8 3.2 28.4zm656.4 120.5C900.2 231.8 952 237 952.5 237c.4 0 .5 12.7.2 28.2-3.4 153.3-47.2 300.9-127.5 429.8-16.2 26.1-51.7 76.8-52.9 75.6-.2-.2 3.1-7.5 7.3-16.2 41-85 70.8-180.7 89.3-286.9 9.1-52.5 13-79.3 15.6-109 1.5-16.7 3.9-96.4 3-97.4-.3-.2-37.5-10.7-82.7-23.3-45.1-12.5-82.3-23-82.6-23.3-.8-.7-8.5-1.5 115.2 11zM693 859.8c0 1-31.2 30.1-46.5 43.3-39.1 33.8-90.4 70.7-124.1 89.4l-5 2.8-16-9.8c-41.2-25.3-78.6-52-112.9-80.5-14.9-12.4-42.6-37.3-42-37.8.2-.2 5.3 3.1 11.2 7.5 43.5 32 102.8 63.8 152.3 81.7l7.6 2.7 13.5-5.5c39.6-15.9 80.8-37.9 118.4-62.9 14.9-9.9 41-29 42-30.8.7-1.1 1.5-1.2 1.5-.1z"/><path d="M550.8 225.7c.7.3 1.6.2 1.9-.1.4-.3-.2-.6-1.3-.5-1.1 0-1.4.3-.6.6zM346.7 448.8c1.6 4.6 17.1 35.9 24.4 49.4C426.9 601.9 489.7 665.8 546 676.4c15.5 3 35.1 1.8 49.6-2.9 7.2-2.4 24.1-11 30.1-15.3l5.2-3.8-32.7-23.7-32.6-23.8-2.6 7.3c-5.9 16.8-14.9 24.6-27.1 23.5-8.5-.7-17.1-5.6-25.9-14.6-15.2-15.5-23.2-37.9-24.3-68.1l-.2-6.4-61.2-44.6c-33.6-24.5-65-47.3-69.7-50.7-4.9-3.6-8.3-5.5-7.9-4.5zM775.6 553c-11.4 23.1-11.9 24.3-12.2 31.3-.7 14.6-6.5 39-10.5 44.1-2.8 3.6-8 3.6-10.8-.1-1.2-1.4-2.3-2.4-2.5-2.2-.2.2-3.1 5.9-6.5 12.7l-6.2 12.3 2.8 5c3 5.7 8.1 10.6 11.8 11.5 13.3 3.3 26.4-26.2 37.9-85.1 3.6-18.5 8.9-52.5 8.3-53.1-.2-.2-5.7 10.4-12.1 23.6z"/></svg>